<svg xmlns="http://www.w3.org/2000/svg" viewBox="0 0 800 400" width="800" height="400">
  <defs>
    <linearGradient id="grad1" x1="0%" y1="0%" x2="100%" y2="100%">
      <stop offset="0%" style="stop-color:#0ea5e9;stop-opacity:1" />
      <stop offset="100%" style="stop-color:#0284c7;stop-opacity:1" />
    </linearGradient>
  </defs>
  <rect width="800" height="400" fill="url(#grad1)"/>
  <g transform="translate(400, 200)">
    <!-- Compas d'orientation -->
    <circle cx="0" cy="0" r="80" fill="none" stroke="white" stroke-width="3" opacity="0.9"/>
    <circle cx="0" cy="0" r="60" fill="none" stroke="white" stroke-width="2" opacity="0.7"/>
    <line x1="0" y1="-80" x2="0" y2="80" stroke="white" stroke-width="2" opacity="0.8"/>
    <line x1="-80" y1="0" x2="80" y2="0" stroke="white" stroke-width="2" opacity="0.8"/>
    <!-- Flèche directionnelle -->
    <path d="M 0 -60 L -15 -30 L 0 -20 L 15 -30 Z" fill="white" opacity="0.9"/>
    <!-- Points cardinaux -->
    <text x="0" y="-95" fill="white" font-size="20" font-weight="bold" text-anchor="middle" opacity="0.9">N</text>
    <text x="0" y="110" fill="white" font-size="20" font-weight="bold" text-anchor="middle" opacity="0.9">S</text>
    <text x="-95" y="5" fill="white" font-size="20" font-weight="bold" text-anchor="middle" opacity="0.9">O</text>
    <text x="95" y="5" fill="white" font-size="20" font-weight="bold" text-anchor="middle" opacity="0.9">E</text>
    <!-- Icônes de métiers autour -->
    <g transform="translate(-120, -80)">
      <circle cx="0" cy="0" r="25" fill="white" opacity="0.2"/>
      <text x="0" y="8" fill="white" font-size="30" text-anchor="middle">💼</text>
    </g>
    <g transform="translate(120, -80)">
      <circle cx="0" cy="0" r="25" fill="white" opacity="0.2"/>
      <text x="0" y="8" fill="white" font-size="30" text-anchor="middle">🎓</text>
    </g>
    <g transform="translate(-120, 80)">
      <circle cx="0" cy="0" r="25" fill="white" opacity="0.2"/>
      <text x="0" y="8" fill="white" font-size="30" text-anchor="middle">🔬</text>
    </g>
    <g transform="translate(120, 80)">
      <circle cx="0" cy="0" r="25" fill="white" opacity="0.2"/>
      <text x="0" y="8" fill="white" font-size="30" text-anchor="middle">💻</text>
    </g>
  </g>
</svg>

